<?xml version="1.0" encoding="UTF-8" standalone="yes"?>
<svg version="1.1" id="Layer_1" xmlns:x="&amp;ns_extend;" xmlns:i="&amp;ns_ai;" xmlns:graph="&amp;ns_graphs;" xmlns="http://www.w3.org/2000/svg" xmlns:xlink="http://www.w3.org/1999/xlink" x="0px" y="0px" viewBox="0 0 285.48 315" style="enable-background:new 0 0 285.48 315;" xml:space="preserve">
      <style type="text/css">.st0{fill:url(#SVGID_1_);}	.st1{opacity:0.3;}	.st2{fill:#FFFFFF;}</style>
    <metadata>
              <sfw>
                      <slices/>
            <sliceSourceBounds bottomLeftOrigin="true" height="315" width="285.48" x="552.272" y="-995.662"/>
                  </sfw>
          </metadata>
    <g id="color_index_g">
              <linearGradient id="SVGID_1_" gradientUnits="userSpaceOnUse" x1="0" y1="157.5" x2="285.4797" y2="157.5">
                      <stop offset="0" style="stop-color:#01045c"/>
            <stop offset="0.6788" style="stop-color:#0241e2"/>
                  </linearGradient>
        <path class="st0" d="M225.897,18.829l-4.605-10.317c-0.625-1.399,0.003-3.04,1.403-3.665l10.317-4.605&#x9;&#x9;c1.399-0.625,3.04,0.003,3.665,1.403l4.605,10.317c0.625,1.399-0.003,3.04-1.403,3.665l-10.317,4.605&#x9;&#x9;C228.162,20.856,226.522,20.228,225.897,18.829z M169.09,55.838l-13.845-2.608c-1.506-0.284-2.957,0.707-3.24,2.213l-2.608,13.845&#x9;&#x9;c-0.284,1.506,0.707,2.957,2.213,3.24l13.845,2.608c1.506,0.284,2.957-0.707,3.24-2.213l2.609-13.845&#x9;&#x9;C171.587,57.573,170.596,56.122,169.09,55.838z M225.73,76.086l14.424,8.328c1.327,0.766,3.024,0.312,3.79-1.016l8.328-14.424&#x9;&#x9;c0.766-1.327,0.312-3.024-1.016-3.79l-14.424-8.328c-1.327-0.766-3.024-0.312-3.79,1.016l-8.328,14.424&#x9;&#x9;C223.948,73.623,224.403,75.32,225.73,76.086z M122.272,110.905h-22.175c-1.532,0-2.775,1.242-2.775,2.775v22.175&#x9;&#x9;c0,1.532,1.242,2.775,2.775,2.775h22.175c1.532,0,2.775-1.242,2.775-2.775V113.68C125.047,112.147,123.805,110.905,122.272,110.905&#x9;&#x9;z M215.245,121.936l-16.436-14.886c-1.136-1.029-2.891-0.942-3.919,0.194l-14.886,16.436c-1.029,1.136-0.942,2.891,0.194,3.919&#x9;&#x9;l16.436,14.886c1.136,1.029,2.891,0.942,3.919-0.194l14.886-16.436C216.468,124.72,216.381,122.965,215.245,121.936z&#x9;&#x9; M285.437,166.202l-3.864-21.836c-0.267-1.509-1.707-2.516-3.216-2.249l-21.836,3.864c-1.509,0.267-2.516,1.707-2.249,3.216&#x9;&#x9;l3.864,21.836c0.267,1.509,1.707,2.516,3.216,2.249l21.836-3.864C284.697,169.151,285.704,167.711,285.437,166.202z&#x9;&#x9; M251.609,195.405h-22.175c-1.532,0-2.775,1.242-2.775,2.775v5.17c0,1.532-1.242,2.775-2.775,2.775h-22.175&#x9;&#x9;c-1.532,0-2.775-1.242-2.775-2.775v-22.175c0-1.532-1.242-2.775-2.775-2.775h-22.175c-1.532,0-2.775-1.242-2.775-2.775v-22.175&#x9;&#x9;c0-1.532-1.242-2.775-2.775-2.775h-22.175c-1.532,0-2.775,1.242-2.775,2.775v9.555c0,1.532-1.242,2.775-2.775,2.775h-22.175&#x9;&#x9;c-1.532,0-2.775-1.242-2.775-2.775v-9.555c0-1.532-1.242-2.775-2.775-2.775H90.81c-1.532,0-2.775-1.242-2.775-2.775v-16.138&#x9;&#x9;c0-1.532-1.242-2.775-2.775-2.775H63.085c-1.532,0-2.775,1.242-2.775,2.775V147.9c0,1.532-1.242,2.775-2.775,2.775H50.92H32.704&#x9;&#x9;c-1.532,0-2.775,1.242-2.775,2.775v53.212c0,1.532-1.242,2.775-2.775,2.775H2.775c-1.532,0-2.775,1.242-2.775,2.775v22.175&#x9;&#x9;c0,1.532,1.242,2.775,2.775,2.775H24.95c1.532,0,2.775,1.242,2.775,2.775v22.175c0,1.532,1.242,2.775,2.775,2.775h22.175&#x9;&#x9;c1.532,0,2.775,1.242,2.775,2.775v22.175c0,1.532,1.242,2.775,2.775,2.775h21.303c1.532,0,2.775,1.242,2.775,2.775v16.839&#x9;&#x9;c0,1.532,1.242,2.775,2.775,2.775h170.618c1.532,0,2.775-1.242,2.775-2.775v-47.876c0-1.532,1.242-2.775,2.775-2.775h18.09&#x9;&#x9;c1.532,0,2.775-1.242,2.775-2.775v-22.175c0-1.532-1.242-2.775-2.775-2.775h-22.175c-1.532,0-2.775-1.242-2.775-2.775V198.18&#x9;&#x9;C254.384,196.647,253.142,195.405,251.609,195.405z"/>
          </g>
    <g>
              <path class="st1" d="M82.302,188.214l6.701,18.63h-6.701V188.214z M177.21,230.604h9.973l-9.973-27.725V230.604z M138.909,288.57&#x9;&#x9;h9.973l-9.973-27.725V288.57z"/>
          </g>
    <g>
              <path class="st2" d="M177.21,230.604h-27.725v-27.725h27.725V230.604z M138.909,260.846h-27.725v27.725h27.725V260.846z&#x9;&#x9; M82.302,188.214h-18.63v18.63h18.63V188.214z"/>
          </g>
  </svg>